<svg xmlns="http://www.w3.org/2000/svg" xmlns:xlink="http://www.w3.org/1999/xlink" xml:space="preserve" viewBox="100 230 800 540"><path fill="#006491" d="M500.32 236.6C354.84 236.6 236.9 354.53 236.9 500c0 145.47 117.93 263.4 263.4 263.4 145.48 0 263.41-117.93 263.41-263.4 0-145.47-117.93-263.4-263.4-263.4z"/><path fill="#E31837" d="M500.32 303.02c-15.29 0-30.8-3.81-45.1-.56-14.76 3.35-27.07 13.6-40.4 20.02-13.53 6.53-29.19 9.84-40.82 19.13-11.69 9.34-18.37 23.88-27.7 35.57-9.3 11.63-22.02 21.36-28.55 34.9-6.43 13.33-6.17 29.3-9.53 44.07-3.25 14.3-10.49 28.57-10.49 43.85 0 15.29 7.24 29.55 10.5 43.85 3.35 14.77 3.1 30.75 9.52 44.07 6.53 13.54 19.26 23.27 28.54 34.9 9.34 11.7 16.02 26.24 27.71 35.58 11.63 9.28 27.29 12.6 40.83 19.13 13.32 6.43 25.63 16.66 40.4 20.02 14.3 3.25 29.8-.56 45.09-.56 15.28 0 30.78 3.81 45.09.56 14.76-3.36 27.07-13.6 40.4-20.02 13.53-6.54 29.19-9.85 40.82-19.14 11.69-9.33 18.37-23.88 27.7-35.57 9.3-11.63 22.02-21.36 28.55-34.9 6.42-13.32 6.17-29.3 9.53-44.07 3.25-14.3 10.49-28.56 10.49-43.85 0-15.28-7.24-29.55-10.5-43.85-3.35-14.76-3.1-30.74-9.52-44.06-6.54-13.55-19.26-23.28-28.55-34.9-9.33-11.7-16.02-26.25-27.7-35.58-11.64-9.29-27.29-12.6-40.83-19.13-13.32-6.43-25.63-16.66-40.4-20.02-14.3-3.25-29.8.56-45.08.56z"/><path fill="#FFF" d="M766.5 500c0 146.77-119.42 266.18-266.18 266.18-146.78 0-266.18-119.41-266.18-266.18s119.4-266.18 266.18-266.18c146.76 0 266.17 119.41 266.17 266.18zm-481.34 0c0 118.64 96.52 215.15 215.16 215.15 118.63 0 215.15-96.51 215.15-215.15 0-118.63-96.52-215.15-215.15-215.15-118.64 0-215.16 96.52-215.16 215.15z"/><path fill="#006491" d="M500.32 767.89C352.6 767.89 232.43 647.7 232.43 500S352.6 232.11 500.32 232.11 768.2 352.3 768.2 500 648.03 767.89 500.32 767.89zm0-532.36c-145.83 0-264.47 118.64-264.47 264.47S354.5 764.47 500.32 764.47 764.78 645.83 764.78 500 646.14 235.53 500.32 235.53zm0 481.33c-119.58 0-216.87-97.28-216.87-216.86s97.29-216.86 216.87-216.86S717.18 380.42 717.18 500s-97.29 216.86-216.86 216.86zm0-430.3c-117.7 0-213.45 95.75-213.45 213.44s95.75 213.44 213.45 213.44S713.76 617.69 713.76 500 618 286.56 500.32 286.56z"/><path fill="#4D92B2" d="m276.88 506.84.17 3.29h-.3zM277.27 513.41l.26 3.27-.88.04.03-3.3zM277.85 519.95l.36 3.25-1.47.11-.07-3.3zM278.62 526.46l.46 3.24-2.06.21-.17-3.3zM279.56 532.94l.52 3.22-2.53.34-.29-3.29zM280.66 539.38l.62 3.21-3.01.49-.39-3.29zM281.95 545.78l.71 3.19-3.47.67-.49-3.28zM283.42 552.14l.81 3.15-3.93.88-.58-3.26zM285.08 558.44l.88 3.13-4.32 1.11-.7-3.25zM286.88 564.69l.97 3.11-4.67 1.34-.79-3.23zM288.87 570.88l1.06 3.07-5.01 1.61-.89-3.21zM291.04 577.01l1.16 3.04-5.35 1.89-.99-3.19zM293.4 583.08l1.24 3-5.66 2.19-1.09-3.15zM295.93 589.06l1.32 2.95-5.97 2.51-1.17-3.11zM298.61 594.94l1.39 2.91-6.2 2.83-1.29-3.06zM301.43 600.74l1.48 2.88-6.4 3.15-1.38-3.04zM304.43 606.47l1.56 2.83-6.59 3.49-1.47-3zM307.59 612.11l1.65 2.78-6.76 3.83-1.56-2.95zM310.92 617.64l1.72 2.73-6.91 4.2-1.65-2.91zM314.4 623.08l1.8 2.67-7.05 4.57-1.73-2.86zM318.04 628.4l1.88 2.62-7.18 4.96-1.82-2.82zM321.84 633.61l1.94 2.57-7.27 5.34-1.91-2.76zM325.75 638.72l2.01 2.52-7.3 5.69-2-2.69zM329.8 643.72l2.08 2.46-7.3 6.05-2.08-2.64zM333.99 648.6l2.15 2.39-7.3 6.42-2.15-2.58zM338.32 653.35l2.22 2.33-7.28 6.78-2.23-2.51zM342.78 657.97l2.29 2.26-7.24 7.15-2.3-2.44zM347.38 662.46l2.34 2.19-7.18 7.52-2.37-2.38zM352.1 666.81l2.4 2.12-7.11 7.9-2.44-2.31zM356.94 671.01l2.47 2.05-7.03 8.28-2.51-2.24zM361.9 675.07l2.52 1.98-6.92 8.66-2.58-2.17zM366.96 679l2.56 1.92-6.75 8.97-2.65-2.07zM372.12 682.8l2.61 1.84-6.56 9.27-2.72-1.99zM377.38 686.44l2.67 1.77-6.37 9.57-2.77-1.91zM382.75 689.93l2.71 1.68-6.16 9.88-2.82-1.83zM388.21 693.26l2.77 1.6-5.94 10.17-2.88-1.75zM393.77 696.42l2.81 1.52-5.71 10.47-2.93-1.67zM399.41 699.42l2.85 1.44-5.45 10.75-2.98-1.58zM405.14 702.25l2.89 1.35-5.19 11.03-3.03-1.49zM410.95 704.91l2.93 1.26-4.92 11.31-3.07-1.4zM416.83 707.39l2.97 1.18-4.64 11.58-3.11-1.31zM422.78 709.7l3 1.1-4.34 11.82-3.15-1.21zM428.78 711.87l3.03 1.02-4 11.98-3.19-1.1zM434.84 713.86l3.06.93-3.66 12.15-3.22-1.01zM440.96 715.68l3.08.84-3.3 12.29-3.26-.91zM447.13 717.31l3.1.75-2.95 12.43-3.28-.82zM453.34 718.76l3.12.66-2.58 12.55-3.31-.72zM459.59 720.02l3.14.57-2.22 12.67-3.32-.62zM465.88 721.1l3.16.47-1.86 12.78-3.34-.52zM472.2 722l3.17.37-1.48 12.87-3.36-.42zM478.54 722.7l3.18.28-1.11 12.96-3.36-.32zM484.9 723.22l3.18.19-.73 13.03-3.37-.23zM491.26 723.55l3.17.1-.35 13.09-3.36-.13zM497.62 723.7l3.19.01.03 13.13-3.38-.02zM504 723.68l3.19-.06.41 13.09-3.38.09zM510.38 723.51l3.19-.16.79 13.03-3.38.19zM516.75 723.14l3.18-.25 1.17 12.96-3.37.29zM523.11 722.6l3.17-.35 1.54 12.87-3.36.39zM529.45 721.86l3.16-.44 1.91 12.77-3.35.49zM535.76 720.94l3.14-.53 2.29 12.66-3.33.59zM542.04 719.83l3.13-.63 2.65 12.55-3.31.68zM548.29 718.53l3.11-.71 3.01 12.41-3.29.79zM554.5 717.05l3.09-.8 3.36 12.27-3.27.88zM560.66 715.39l3.06-.9 3.71 12.13-3.23.97zM566.77 713.55l3.04-1 4.05 11.97-3.21 1.08zM572.84 711.51l3.01-1.08 4.39 11.8-3.18 1.17zM578.85 709.31l2.98-1.14 4.69 11.56-3.12 1.28zM584.79 706.97l2.94-1.23 4.98 11.29-3.08 1.37zM590.64 704.47l2.9-1.32 5.25 11.01-3.03 1.46zM596.43 701.78l2.87-1.4 5.51 10.72-3 1.56zM602.15 698.93l2.83-1.5 5.75 10.44-2.95 1.64zM607.78 695.9l2.78-1.58 5.99 10.15-2.89 1.72zM613.33 692.71l2.73-1.66 6.21 9.85-2.84 1.8zM618.78 689.35l2.68-1.74 6.42 9.55-2.79 1.89zM624.13 685.84l2.63-1.82 6.62 9.24-2.74 1.97zM629.37 682.17l2.59-1.9 6.79 8.94-2.67 2.04zM634.51 678.34l2.53-1.96 6.97 8.62-2.61 2.12zM639.56 674.39l2.48-2.02 7.07 8.23-2.54 2.22zM644.5 670.3l2.42-2.09 7.15 7.86-2.47 2.28zM649.32 666.07l2.37-2.16 7.21 7.48-2.4 2.35zM654.02 661.7l2.3-2.23 7.26 7.1-2.32 2.43zM658.59 657.2l2.24-2.31 7.3 6.74-2.26 2.49zM663.03 652.55l2.17-2.36 7.32 6.36-2.18 2.56zM667.34 647.78l2.1-2.43 7.32 6.01-2.1 2.61zM671.51 642.89l2.03-2.5 7.31 5.65-2.03 2.67zM675.53 637.87l1.96-2.56 7.29 5.3-1.95 2.73zM679.42 632.74l1.91-2.6 7.18 4.91-1.85 2.79zM683.19 627.51l1.83-2.65 7.05 4.52-1.76 2.85zM686.8 622.18l1.75-2.71 6.91 4.14-1.67 2.9zM690.26 616.73l1.67-2.76 6.75 3.79-1.59 2.94zM693.56 611.18l1.59-2.81 6.57 3.44-1.5 2.98zM696.69 605.53l1.51-2.86 6.38 3.11-1.41 3.02zM699.66 599.79l1.43-2.9 6.18 2.78-1.32 3.06zM702.47 593.96l1.35-2.94 5.93 2.46-1.21 3.11zM705.13 588.06l1.27-2.98 5.63 2.14-1.12 3.14zM707.63 582.08l1.18-3.02 5.3 1.84-1.02 3.17zM709.95 576.02l1.09-3.06 4.97 1.56-.93 3.2zM712.09 569.89l1-3.09 4.62 1.3-.83 3.22zM714.05 563.69l.91-3.12 4.26 1.06-.73 3.24zM715.83 557.43l.83-3.15 3.86.85-.62 3.26zM717.46 551.12l.75-3.17 3.39.64-.52 3.27zM718.91 544.76l.65-3.2 2.92.46-.42 3.29zM720.17 538.35l.56-3.22 2.44.32-.32 3.29zM721.24 531.9l.47-3.23 1.95.19-.22 3.29zM722.15 525.42l.4-3.25 1.36.09-.1 3.3zM722.9 518.9l.3-3.25.76.03v3.28zM723.45 512.38l.2-3.27h.18l.09 3.28z"/><g><path fill="#4D92B2" d="m747.76 494.9-.07-1.64h.13zM747.51 489.97l-.22-3.29.67-.02-.05 3.3zM747.03 483.4l-.31-3.27 1.21-.07.04 3.3zM746.37 476.86l-.39-3.26 1.73-.15.13 3.3zM745.55 470.34l-.47-3.25 2.23-.25.23 3.3zM744.59 463.85l-.55-3.23 2.66-.37.32 3.29zM743.46 457.4l-.63-3.22 3.08-.51.42 3.29zM742.16 450.98l-.71-3.2 3.5-.68.5 3.28zM740.69 444.6l-.8-3.17 3.92-.87.59 3.27zM739.06 438.27l-.87-3.15 4.27-1.07.7 3.25zM737.29 431.99l-.95-3.13 4.59-1.28.79 3.23zM735.35 425.76l-1.03-3.1 4.91-1.52.87 3.22zM733.25 419.58l-1.11-3.06 5.21-1.77.96 3.19zM730.98 413.46l-1.2-3.04 5.51-2.03 1.05 3.17zM728.55 407.4l-1.28-2.99 5.79-2.32 1.14 3.14zM725.96 401.44l-1.34-2.96 6.05-2.61 1.22 3.1zM723.25 395.55l-1.41-2.92 6.24-2.89 1.32 3.05zM720.4 389.74l-1.49-2.89 6.42-3.18 1.4 3.03zM717.38 383.99l-1.56-2.84 6.59-3.5 1.48 3zM714.22 378.32l-1.64-2.79 6.74-3.81 1.57 2.96zM710.9 372.75l-1.71-2.75 6.89-4.14 1.64 2.92zM707.45 367.27l-1.79-2.7 7.02-4.47 1.72 2.87zM703.85 361.89l-1.86-2.66 7.14-4.81 1.79 2.82zM700.11 356.6l-1.92-2.6 7.23-5.17 1.88 2.78zM696.24 351.42l-1.98-2.56 7.29-5.5 1.96 2.72zM692.26 346.32l-2.04-2.5 7.3-5.82 2.03 2.66zM688.15 341.34l-2.1-2.46 7.3-6.14 2.1 2.61zM683.91 336.46l-2.16-2.39 7.29-6.48 2.17 2.56zM679.55 331.7l-2.23-2.33 7.27-6.81 2.24 2.5zM675.07 327.06l-2.29-2.27 7.24-7.14 2.3 2.44zM670.46 322.54l-2.34-2.21 7.19-7.48 2.37 2.39zM665.74 318.15l-2.4-2.15 7.13-7.82 2.43 2.32zM660.91 313.88l-2.45-2.08 7.05-8.16 2.5 2.26zM655.97 309.75l-2.5-2.02 6.96-8.5 2.56 2.19zM650.93 305.75l-2.55-1.97 6.85-8.81 2.62 2.1zM645.81 301.85l-2.6-1.9 6.68-9.09 2.68 2.04zM640.59 298.09l-2.65-1.83 6.51-9.37 2.74 1.97zM635.27 294.47l-2.69-1.76 6.33-9.64 2.78 1.9zM629.86 290.99l-2.74-1.68 6.14-9.91 2.84 1.82zM624.37 287.66l-2.79-1.61 5.94-10.17 2.88 1.74zM618.78 284.48l-2.82-1.53 5.72-10.45 2.93 1.67zM613.12 281.45l-2.86-1.46 5.5-10.7 2.97 1.59zM607.38 278.57l-2.9-1.38 5.26-10.96 3.02 1.51zM601.56 275.85l-2.93-1.3 5.02-11.22 3.06 1.43zM595.68 273.28l-2.97-1.22 4.77-11.46 3.1 1.35zM589.73 270.87l-2.99-1.14 4.5-11.7 3.13 1.27zM583.73 268.62l-3.02-1.08 4.21-11.88 3.17 1.16zM577.67 266.5l-3.04-1.01 3.9-12.02 3.2 1.07zM571.57 264.53l-3.08-.91 3.6-12.17 3.23.99zM565.41 262.74l-3.1-.84 3.28-12.3 3.26.9zM559.21 261.11l-3.12-.75 2.95-12.43 3.28.81zM552.96 259.64l-3.13-.66 2.63-12.54 3.3.72zM546.68 258.35l-3.15-.58 2.3-12.65 3.32.63zM540.37 257.22l-3.17-.5 1.97-12.74 3.33.55zM534.03 256.27l-3.18-.42 1.63-12.83 3.35.46zM527.66 255.48l-3.19-.33 1.3-12.92 3.36.37zM521.28 254.86l-3.2-.24.95-12.99 3.37.28zM514.88 254.41l-3.18-.16.61-13.04 3.35.19zM508.5 254.14l-3.2-.08.27-13.1 3.37.1zM502.1 254.03h-3.21l-.08-13.14 3.38.01zM495.68 254.06l-3.2.07-.42-13.09 3.38-.1zM489.27 254.25l-3.2.15-.76-13.03 3.37-.19zM482.87 254.6l-3.2.24-1.11-12.97 3.37-.27zM476.48 255.12l-3.2.33-1.44-12.89 3.36-.37zM470.1 255.82l-3.18.41-1.78-12.81 3.34-.45zM463.74 256.68l-3.17.5-2.11-12.72 3.33-.54zM457.41 257.72l-3.15.58-2.45-12.62 3.32-.63zM451.11 258.92l-3.14.66-2.77-12.5 3.3-.72zM444.85 260.29l-3.12.75-3.11-12.38 3.28-.81zM438.62 261.83l-3.1.83-3.42-12.25 3.25-.9zM432.43 263.53l-3.07.92-3.74-12.12 3.23-.98zM426.3 265.41l-3.05.99-4.05-11.97 3.2-1.07zM420.2 267.45l-3.04 1.08-4.35-11.82 3.18-1.16zM414.15 269.65l-3 1.14-4.64-11.61 3.13-1.26zM408.16 271.97l-2.96 1.22-4.9-11.37 3.09-1.34zM402.25 274.45l-2.93 1.3-5.14-11.13 3.05-1.42zM396.42 277.08l-2.9 1.38-5.39-10.87 3.02-1.51zM390.63 279.88l-2.86 1.45-5.61-10.61 2.97-1.58zM384.92 282.83l-2.82 1.53-5.83-10.35 2.93-1.66zM379.29 285.93l-2.78 1.6-6.04-10.08 2.89-1.74zM373.75 289.18l-2.74 1.68-6.24-9.81 2.84-1.82zM368.29 292.58l-2.7 1.75-6.43-9.54 2.79-1.89zM362.92 296.12l-2.65 1.82-6.61-9.26 2.74-1.96zM357.64 299.8l-2.6 1.9-6.77-8.98 2.68-2.04zM352.46 303.63l-2.55 1.96-6.92-8.7 2.62-2.1zM347.38 307.58l-2.51 2.01-7.03-8.37 2.55-2.18zM342.38 311.64l-2.45 2.08-7.12-8.02 2.5-2.26zM337.49 315.84l-2.4 2.14-7.18-7.68 2.43-2.32zM332.71 320.16l-2.34 2.21-7.24-7.34 2.37-2.38zM328.05 324.61l-2.29 2.27-7.28-7 2.31-2.44zM323.5 329.19l-2.23 2.33-7.31-6.67 2.25-2.5zM319.07 333.88l-2.17 2.39-7.32-6.34 2.18-2.55zM314.76 338.69l-2.1 2.45-7.32-6.01 2.1-2.61zM310.59 343.62l-2.05 2.5-7.31-5.69 2.04-2.66zM306.54 348.65l-1.98 2.56-7.29-5.37 1.96-2.71zM302.62 353.79l-1.93 2.6-7.21-5.02 1.87-2.78zM298.8 359.02l-1.85 2.65-7.11-4.67 1.8-2.83zM295.13 364.34l-1.79 2.7-6.98-4.33 1.72-2.87zM291.59 369.77l-1.71 2.75-6.84-4 1.64-2.91zM288.2 375.29l-1.64 2.79-6.69-3.67 1.56-2.95zM284.96 380.9l-1.57 2.84-6.53-3.36 1.48-2.99zM281.86 386.6l-1.49 2.88-6.36-3.06 1.41-3.03zM278.92 392.39l-1.42 2.92-6.17-2.77 1.32-3.07zM276.13 398.25l-1.35 2.95-5.96-2.48 1.23-3.1zM273.46 404.18l-1.27 2.99-5.68-2.19 1.14-3.14zM270.95 410.18l-1.2 3.02-5.38-1.91 1.05-3.16zM268.6 416.24l-1.12 3.06-5.08-1.65.96-3.19zM266.41 422.38l-1.04 3.09-4.77-1.41.88-3.21zM264.38 428.58l-.95 3.12-4.45-1.19.79-3.23zM262.52 434.83l-.87 3.15-4.12-.99.7-3.24zM260.82 441.13l-.81 3.17-3.73-.78.6-3.27zM259.25 447.48l-.72 3.19-3.31-.6.51-3.28zM257.86 453.88l-.63 3.21-2.89-.45.42-3.29zM256.64 460.31l-.55 3.23-2.45-.31.33-3.3zM255.58 466.78l-.46 3.25-2.01-.2.24-3.3zM254.68 473.28l-.4 3.27-1.47-.11.13-3.31zM253.93 479.81l-.31 3.26-.94-.04.04-3.29zM253.35 486.34l-.23 3.28-.4-.01-.04-3.29zM252.94 493.26l-.07 1.64-.07-1.64z"/></g><g><path fill="#FFF" d="M478.23 416.88a25.43 25.43 0 1 1 44.04 25.42 25.43 25.43 0 0 1-44.04-25.42zM417.28 477.57a25.43 25.43 0 1 1 44.05-25.44 25.43 25.43 0 0 1-44.05 25.44zM439.37 560.7a25.43 25.43 0 1 1 0-50.86 25.43 25.43 0 0 1 0 50.85zM522.4 583.13a25.43 25.43 0 1 1-44.04-25.42 25.43 25.43 0 0 1 44.04 25.42zM583.35 522.44a25.43 25.43 0 1 1-44.05 25.42 25.43 25.43 0 0 1 44.05-25.42zM561.26 439.3a25.43 25.43 0 1 1 0 50.87 25.43 25.43 0 0 1 0-50.86z"/></g><g><path fill="#FFF" d="M518.51 373.83c0-10.74-11.1-14.7-11.1-26.64 0-19.87 26.86 24.25 26.86-11.13 0-16.77-34.02-15.1-34.02-15.1s-33.3-1.67-33.3 15.1c0 35.38 26.86-8.74 26.86 11.13 0 11.93-11.1 15.9-11.1 26.64 0 10.91 35.8 10.91 35.8 0zM452.99 381.63c-5.37-9.3-16.97-7.18-22.93-17.51-9.94-17.22 35.38 7.57 17.69-23.07-8.39-14.52-37.01 3.93-37.01 3.93s-29.67 15.2-21.29 29.73c17.7 30.64 18.89-21 28.83-3.8 5.96 10.34-1.67 19.33 3.7 28.63 5.46 9.45 36.47-8.46 31-17.9zM400.14 421.15c-9.29-5.36-18.28 2.27-28.61-3.7-17.22-9.94 34.43-11.13 3.78-28.82-14.52-8.38-30.08 21.9-30.08 21.9s-18.1 28.01-3.57 36.4c30.64 17.68 5.85-27.63 23.06-17.7 10.33 5.97 8.23 17.57 17.52 22.93 9.45 5.46 27.36-25.55 17.9-31zM374.14 481.8c-10.73 0-14.7 11.1-26.63 11.1-19.88 0 24.25-26.85-11.14-26.85-16.76 0-15.1 34.02-15.1 34.02s-1.66 33.3 15.1 33.3c35.38 0-8.74-26.86 11.13-26.86 11.94 0 15.91 11.1 26.65 11.1 10.9 0 10.9-35.8 0-35.8zM381.95 547.33c-9.3 5.37-7.19 16.96-17.52 22.93-17.21 9.94 7.57-35.38-23.07-17.7-14.52 8.4 3.93 37.02 3.93 37.02s15.21 29.67 29.73 21.28c30.64-17.69-21-18.88-3.79-28.81 10.34-5.97 19.33 1.65 28.62-3.71 9.45-5.46-8.45-36.47-17.9-31.01zM421.47 600.17c-5.37 9.3 2.26 18.28-3.7 28.62-9.94 17.22-11.14-34.43-28.83-3.79-8.38 14.52 21.91 30.09 21.91 30.09s28 18.1 36.39 3.57c17.68-30.64-27.63-5.85-17.7-23.06 5.97-10.34 17.57-8.24 22.94-17.53 5.45-9.44-25.56-27.35-31-17.9zM482.12 626.17c0 10.74 11.1 14.7 11.1 26.64 0 19.88-26.86-24.25-26.86 11.13 0 16.77 34.02 15.1 34.02 15.1s33.3 1.67 33.3-15.1c0-35.38-26.85 8.74-26.85-11.12 0-11.94 11.1-15.92 11.1-26.65 0-10.9-35.81-10.9-35.8 0zM547.65 618.37c5.36 9.3 16.96 7.18 22.92 17.52 9.95 17.21-35.37-7.57-17.69 23.07 8.39 14.52 37.02-3.94 37.02-3.94s29.67-15.2 21.28-29.72c-17.7-30.64-18.88 21-28.82 3.79-5.97-10.34 1.65-19.33-3.7-28.63-5.46-9.44-36.47 8.46-31.01 17.9zM600.5 578.84c9.28 5.37 18.27-2.25 28.6 3.72 17.22 9.93-34.42 11.12-3.78 28.81 14.52 8.39 30.09-21.9 30.09-21.9s18.09-28.01 3.57-36.4c-30.65-17.68-5.86 27.63-23.07 17.7-10.34-5.97-8.23-17.57-17.52-22.94-9.45-5.44-27.35 25.57-17.9 31.01zM626.49 518.2c10.73 0 14.7-11.1 26.63-11.1 19.88 0-24.24 26.85 11.13 26.85 16.78 0 15.11-34.02 15.11-34.02s1.66-33.3-15.1-33.3c-35.38.01 8.73 26.85-11.13 26.86-11.94 0-15.91-11.1-26.64-11.1-10.91 0-10.91 35.81 0 35.8zM618.68 452.67c9.3-5.36 7.19-16.96 17.52-22.92 17.22-9.95-7.57 35.37 23.07 17.68 14.52-8.38-3.93-37.01-3.93-37.01s-15.21-29.67-29.73-21.28c-30.64 17.7 21 18.88 3.8 28.82-10.35 5.97-19.34-1.66-28.63 3.7-9.45 5.46 8.46 36.47 17.9 31zM579.16 399.83c5.37-9.3-2.26-18.29 3.71-28.61C592.81 354 594 405.63 611.7 375c8.38-14.53-21.91-30.1-21.91-30.1s-28.01-18.08-36.39-3.56c-17.68 30.65 27.62 5.86 17.7 23.07-5.97 10.34-17.57 8.22-22.94 17.52-5.45 9.45 25.56 27.35 31 17.9z"/></g><g><path fill="#FFF" d="M508.34 519.34a11.38 11.38 0 0 1-16.05 0l-11.32-11.31a11.38 11.38 0 0 1 0-16.05l11.32-11.32a11.38 11.38 0 0 1 16.05 0l11.32 11.32a11.38 11.38 0 0 1 0 16.05l-11.32 11.31z"/></g><g><defs><path id="a" d="M766.5 500c0 146.77-119.42 266.18-266.18 266.18-146.78 0-266.18-119.41-266.18-266.18s119.4-266.18 266.18-266.18c146.76 0 266.17 119.41 266.17 266.18z"/></defs><clipPath id="b"><use xlink:href="#a" overflow="visible"/></clipPath><g clip-path="url(#b)" opacity=".4"><path fill="#393336" d="M768.8 552.62a3758.17 3758.17 0 0 0-542.24 0V433.68a3758.21 3758.21 0 0 1 542.24 0v118.94z"/></g></g><g><path fill="#006491" d="M219.7 582.5A1294.82 1294.82 0 0 0 100 615.13a9114 9114 0 0 1 30.74-66.5A9634.5 9634.5 0 0 0 100 501.26a1294.94 1294.94 0 0 1 119.7-32.65V582.5zM780.28 582.5c40.4 8.95 80.37 19.85 119.72 32.64a9114.03 9114.03 0 0 0-30.74-66.5A9634.62 9634.62 0 0 1 900 501.26a1294.96 1294.96 0 0 0-119.72-32.65V582.5z"/><path fill="#005277" d="M219.7 582.5c-22.96-6.47-34.4-9.44-57.16-14.84v-84.98c22.77-6.15 34.2-8.96 57.16-14.06V582.5zM780.28 582.5c22.97-6.47 34.42-9.44 57.2-14.84v-84.98a1078.83 1078.83 0 0 0-57.2-14.06V582.5z"/><path fill="#E31837" d="M174.28 554.86a1859.4 1859.4 0 0 1 45.42 27.63v-45.66a1059.7 1059.7 0 0 0-45.3-3.7l-.12 21.73zM825.72 554.86a1861.5 1861.5 0 0 0-45.44 27.63v-45.67c18.2-1.8 27.26-2.55 45.33-3.7l.11 21.74z"/><path fill="#006491" d="M826.24 553.27c-217.81-52.66-434.68-52.67-652.53.02V439.43c217.85-52.68 434.72-52.68 652.53-.01v113.85z"/><g fill="#FFF"><path d="M228.9 472.42v-4.93c0-2.7-.53-4.54-1.59-5.51a3.9 3.9 0 0 0-3.68-1c-2.21.48-3.73 1.38-4.55 2.7-.82 1.34-1.22 3.2-1.22 5.6v32.22c0 2.4.4 4.1 1.22 5.05.82.97 2.34 1.2 4.55.72 1.99-.44 3.36-1.29 4.12-2.57a9.7 9.7 0 0 0 1.14-5v-7.65c4.35-.93 6.52-1.4 10.87-2.28v7.3c0 2.23-.33 4.41-1 6.55a19.07 19.07 0 0 1-2.99 5.8 18.7 18.7 0 0 1-5.04 4.55 22.09 22.09 0 0 1-7.1 2.8c-2.86.63-5.32.75-7.4.36a10.95 10.95 0 0 1-5.15-2.3 10.37 10.37 0 0 1-3.06-4.49c-.67-1.84-1-3.87-1-6.1v-32.75c0-2.23.33-4.41 1-6.57a18.78 18.78 0 0 1 3.06-5.9 19.93 19.93 0 0 1 5.16-4.64 22.73 22.73 0 0 1 7.4-2.92 15.7 15.7 0 0 1 7.1-.12c2.04.5 3.72 1.41 5.03 2.73 1.32 1.3 2.31 2.95 2.98 4.92.68 1.98 1.01 4.14 1.01 6.48v4.67c-4.35.9-6.52 1.35-10.87 2.28zM261.73 508.16c-4.36.82-6.54 1.24-10.9 2.1V446.7c6.11-1.2 9.17-1.78 15.3-2.91 6.1-1.12 10.71-.49 13.83 1.85 3.11 2.34 4.67 6.89 4.67 13.64 0 2.58-.22 4.82-.66 6.71a20.34 20.34 0 0 1-1.76 4.92 14.54 14.54 0 0 1-5.25 5.7l9.26 27.2c-4.45.74-6.67 1.13-11.1 1.9l-7.76-24.92c-.7.25-1.57.48-2.6.7-1.02.22-2.03.42-3.03.61v26.05zm0-35.03 3.87-.72c1.47-.27 2.72-.64 3.74-1.12a6.42 6.42 0 0 0 2.51-2.03 8.68 8.68 0 0 0 1.41-3.3c.3-1.3.44-2.9.44-4.78 0-3.76-.61-6.21-1.85-7.37-1.23-1.16-3.32-1.48-6.25-.94l-3.87.72v19.54zM294.87 502.4v-63.54c11.72-1.89 17.59-2.76 29.34-4.37v9.5c-7.36 1.02-11.04 1.55-18.4 2.66v16.37c5.66-.86 8.5-1.27 14.15-2.06v9.5c-5.66.8-8.49 1.2-14.14 2.07v18.66c7.84-1.2 11.77-1.76 19.63-2.83v9.5a1079.4 1079.4 0 0 0-30.58 4.54zM340.5 495.9c-4.25.54-6.38.81-10.63 1.37l11.79-65.05c5.45-.67 8.19-1 13.65-1.61l11.8 62.27c-4.26.44-6.39.67-10.65 1.15l-1.95-13.86c-4.82.54-7.24.83-12.06 1.42l-1.95 14.32zm3.55-24.01c3.55-.43 5.32-.64 8.87-1.05l-4.35-26.78-.18.02-4.34 27.8zM376.61 437.9c-4.26.4-6.4.62-10.65 1.06v-9.5c12.92-1.35 19.39-1.94 32.33-2.96v9.5c-4.27.34-6.4.52-10.66.9v54.03c-4.41.39-6.61.59-11.02 1.01V437.9zM404.78 489.55v-63.54c11.8-.88 17.71-1.24 29.54-1.84v9.5c-7.41.38-11.11.6-18.51 1.08v16.37c5.69-.37 8.54-.54 14.23-.85v9.5c-5.7.31-8.54.48-14.23.85v18.66c7.9-.51 11.85-.74 19.75-1.13v9.5c-12.32.61-18.48 1-30.78 1.9zM484.01 486.14c-4.42.06-6.63.1-11.05.19v-26.4c-5.34-14.75-8.01-22.11-13.36-36.8 4.49-.14 6.74-.2 11.23-.3l7.75 24.05h.17l7.4-24.3c4.49-.06 6.73-.07 11.22-.08l-13.36 37.24v26.4zM503.61 437.9c0-2.22.34-4.33 1.03-6.33.68-1.99 1.72-3.72 3.11-5.18 1.4-1.45 3.15-2.6 5.26-3.43 2.11-.83 4.62-1.23 7.53-1.18 2.91.05 5.42.52 7.53 1.42 2.1.9 3.86 2.1 5.25 3.6 1.4 1.5 2.44 3.26 3.12 5.28a19.7 19.7 0 0 1 1.03 6.36v32.74c0 2.24-.35 4.34-1.03 6.31a13.57 13.57 0 0 1-3.12 5.11 14.37 14.37 0 0 1-5.25 3.35c-2.11.8-4.62 1.18-7.53 1.14-2.91-.05-5.42-.5-7.53-1.38a14.13 14.13 0 0 1-8.38-8.73c-.68-1.99-1.02-4.1-1.02-6.33V437.9zm11.05 32.56c0 2.4.42 4.19 1.25 5.34.83 1.16 2.37 1.75 4.63 1.78 2.26.04 3.8-.5 4.63-1.63.83-1.13 1.25-2.9 1.25-5.3v-32.21c0-2.41-.42-4.2-1.25-5.35-.83-1.17-2.37-1.77-4.63-1.8-2.26-.04-3.8.51-4.63 1.65-.84 1.13-1.25 2.9-1.25 5.3v32.22zM548.15 423.4c4.42.16 6.63.25 11.05.45v47.97c0 4.64 1.95 7.04 5.87 7.24 3.92.2 5.88-2.01 5.88-6.65v-47.97c4.4.25 6.62.38 11.03.66v47.52c0 5.52-1.5 9.62-4.5 12.31-2.99 2.7-7.13 3.9-12.4 3.63-5.29-.26-9.43-1.88-12.43-4.88s-4.5-7.24-4.5-12.76V423.4zM603.68 490.2c-4.41-.35-6.62-.52-11.03-.83v-63.55c6.19.44 9.28.68 15.47 1.2 6.16.52 10.8 2.39 13.95 5.56 3.13 3.17 4.7 8.14 4.7 14.89 0 2.58-.22 4.76-.66 6.53a15.54 15.54 0 0 1-1.78 4.45 9.9 9.9 0 0 1-5.28 4.3c3.73 11.86 5.6 17.8 9.32 29.68-4.47-.45-6.71-.66-11.19-1.07a38850.5 38850.5 0 0 0-7.82-27c-.7.06-1.58.05-2.62 0l-3.06-.2v26.04zm0-35.03 3.9.32c1.49.13 2.75.09 3.78-.12a4.53 4.53 0 0 0 2.54-1.36 6.4 6.4 0 0 0 1.42-2.9c.3-1.24.44-2.8.44-4.68 0-3.75-.62-6.38-1.87-7.86-1.24-1.5-3.34-2.37-6.3-2.62a1113 1113 0 0 0-3.91-.32v19.54zM656.76 447.43c0-2.23.34-4.3 1.02-6.22a11.92 11.92 0 0 1 3.1-4.8 12.38 12.38 0 0 1 5.22-2.82c2.1-.57 4.6-.67 7.49-.28 2.89.39 5.38 1.16 7.47 2.3a16.93 16.93 0 0 1 8.31 9.87c.68 2.1 1.02 4.27 1.02 6.5v32.74c0 2.23-.34 4.3-1.01 6.19a11.6 11.6 0 0 1-3.1 4.74 12.23 12.23 0 0 1-5.22 2.72c-2.1.56-4.58.64-7.47.25-2.9-.4-5.39-1.15-7.49-2.27a17.65 17.65 0 0 1-5.22-4.14 16.47 16.47 0 0 1-3.1-5.58 20.65 20.65 0 0 1-1.02-6.46v-32.74zm10.98 33.86c0 2.4.42 4.24 1.24 5.5.83 1.24 2.36 2.02 4.6 2.32 2.25.3 3.78-.05 4.6-1.08.83-1.03 1.25-2.75 1.25-5.16v-32.2c0-2.42-.42-4.25-1.24-5.5-.83-1.27-2.36-2.05-4.6-2.35-2.25-.3-3.78.06-4.6 1.1-.84 1.03-1.25 2.75-1.25 5.16v32.21zM719.96 441.32c3.6.62 5.4.94 8.99 1.59l7.4 41.83.17.04 6.07-39.35c4.08.78 6.12 1.18 10.2 1.99l-11.17 61.37-9.15-1.7-7.92-43.4-.18-.04-7.4 40.7c-3.67-.62-5.5-.92-9.18-1.52-4.83-26.2-7.25-39.3-12.1-65.45 4.1.62 6.15.94 10.25 1.6l6.7 41.59.18.03 7.14-39.28zM759.72 512.37v-63.55c4.03.83 6.05 1.25 10.08 2.1 5.3 15.68 7.94 23.52 13.23 39.25l.17.04v-36.35c3.92.88 5.88 1.32 9.8 2.23v63.55c-3.78-.88-5.67-1.3-9.45-2.16-5.53-17.12-8.3-25.66-13.84-42.72l-.17-.04v39.7c-3.93-.84-5.9-1.25-9.82-2.05z"/></g></g></svg>