<svg xmlns="http://www.w3.org/2000/svg" xmlns:xlink="http://www.w3.org/1999/xlink" xml:space="preserve" viewBox="100 230 800 540"><path fill="#006491" d="M500.3 236.6a263.4 263.4 0 1 0 0 526.8 263.4 263.4 0 0 0 0-526.8z"/><path fill="#E31837" d="M500.8 233.8a263.4 263.4 0 0 0-261.7 293.4L509.4 461l253 66.2a263.4 263.4 0 0 0-261.7-293.4z"/><path fill="#E31837" d="M303.3 500c0 15.3-3.8 30.8-.5 45 3.3 14.9 13.6 27.2 20 40.5 6.5 13.5 9.8 29.2 19.1 40.8 9.4 11.7 23.9 18.4 35.6 27.7 11.6 9.3 21.4 22 34.9 28.6 13.3 6.4 29.3 6.1 44 9.5 14.4 3.2 28.6 10.5 44 10.5 15.2 0 29.5-7.3 43.8-10.5 14.7-3.4 30.7-3.1 44-9.5 13.6-6.6 23.3-19.3 35-28.6 11.6-9.3 26.2-16 35.5-27.7 9.3-11.6 12.6-27.3 19.1-40.8 6.5-13.3 16.7-25.6 20-40.4 3.3-14.3-.5-29.8-.5-45.1 0-1.2 5.6-2.4 5.6-3.6 0-1.2-5.7-2.2-5.7-3.4 0-1.2 5.5-2.6 5.4-3.8 0-1.2-5.7-2-5.8-3.2-.1-1.2 5.4-2.8 5.3-4-.1-1.2-5.8-1.8-6-3 0-1.2 2.6-5.4 2.5-6.6-28.3-.6-28.4 5.6-56.7 5.6-28.3 0-28.3-5.6-56.6-5.6-28.4 0-28.4 5.6-56.7 5.6-28.3 0-28.3-5.6-56.6-5.6s-28.3 5.6-56.6 5.6-28.3-5.6-56.7-5.6-28.2 5-56.5 5.6c-.2 1.2-3.1-.8-3.3.4-.1 1.2 5.3 3 5.2 4.1 0 1.2-5.7 2-5.8 3-.1 1.3 5.4 2.8 5.3 4 0 1.2-5.7 2.1-5.7 3.3 0 1.2 5.5 2.5 5.5 3.7v3.5z"/><path fill="#006491" d="M697.4 497.8c0-15.3 3.8-30.8.6-45.1-3.4-14.8-13.6-27-20-40.4-6.6-13.5-9.9-29.2-19.2-40.8-9.3-11.7-23.9-18.4-35.5-27.7-11.7-9.3-21.4-22-35-28.6-13.3-6.4-29.3-6.2-44-9.5-14.3-3.3-28.6-10.5-43.9-10.5-15.3 0-29.5 7.2-43.8 10.5-14.8 3.3-30.8 3-44 9.5-13.6 6.6-23.4 19.3-35 28.6-11.7 9.3-26.2 16-35.6 27.7-9.3 11.6-12.6 27.3-19.1 40.8-6.4 13.3-16.7 25.6-20 40.4-3.3 14.3.5 29.8.5 45 0 1.3-5.5 2.5-5.5 3.7 0 1.2 5.6 2.2 5.7 3.4 0 1.2-5.5 2.6-5.4 3.8 0 1.2 5.7 2 5.8 3.2 0 1.2-5.4 2.8-5.3 4 0 1.2 5.8 1.8 5.9 3 .1 1.1-2 5.4-1.8 6.5 12.7-2.6 7.5-8.4 23.7-12.3 7-1.7 16.7 1.8 26.5 0 7.7-1.5 15.3-8.5 24.5-9.8 8-1.2 17.3 3.2 26.4 2.2 8.2-.9 16.3-7.2 25.3-7.8 8.3-.6 17.2 4.5 26.1 4.2 8.4-.3 17-6 25.8-6 10.5 0 21 5.6 31.4 5.7 10.6.1 21.2-5.3 31.5-5 10.8.1 21.2 6 31.3 6.2 11 .3 21.6-5 31.6-4.8 11.2.3 21.6 6.2 31.3 6.3 12 .3 22.6-5.2 31.5-5.3 19-.2 27.7 1.6 27.7-1.1z"/><path fill="#FFF" d="M766.5 500a266.5 266.5 0 0 1-266.2 266.2A266.5 266.5 0 0 1 234.1 500a266.5 266.5 0 0 1 266.2-266.2A266.5 266.5 0 0 1 766.5 500zm-481.3 0a215.4 215.4 0 0 0 215.1 215.2A215.4 215.4 0 0 0 715.5 500a215.4 215.4 0 0 0-215.2-215.1A215.4 215.4 0 0 0 285.2 500z"/><path fill="#DD0A2C" d="M500.3 767.9c-147.7 0-267.9-120.2-267.9-267.9s120.2-267.9 268-267.9S768.1 352.3 768.1 500 648 767.9 500.3 767.9zm0-532.4A264.8 264.8 0 0 0 235.8 500c0 145.8 118.7 264.5 264.5 264.5S764.8 645.8 764.8 500a264.8 264.8 0 0 0-264.5-264.5zm0 481.4c-119.6 0-216.8-97.3-216.8-216.9s97.2-216.9 216.8-216.9S717.2 380.4 717.2 500s-97.3 216.9-216.9 216.9zm0-430.3A213.7 213.7 0 0 0 287 500c0 117.7 95.7 213.4 213.4 213.4S713.8 617.7 713.8 500a213.7 213.7 0 0 0-213.5-213.4z"/><path fill="#4D92B2" d="m276.9 506.8.1 3.3h-.2zM277.3 513.4l.2 3.3h-.9l.1-3.3zM277.8 519.9l.4 3.3-1.5.1V520zM278.6 526.5l.5 3.2-2.1.2-.1-3.3zM279.6 532.9l.5 3.3-2.6.3-.2-3.3zM280.7 539.4l.6 3.2-3 .5-.4-3.3zM281.9 545.8l.8 3.2-3.5.6-.5-3.2zM283.4 552.1l.8 3.2-3.9.9-.6-3.3zM285.1 558.4l.9 3.2-4.4 1.1-.7-3.3zM286.9 564.7l1 3.1-4.7 1.3-.8-3.2zM288.9 570.9l1 3.1-5 1.6-.9-3.2zM291 577l1.2 3.1-5.3 1.8-1-3.2zM293.4 583.1l1.2 3-5.6 2.2-1.1-3.2zM295.9 589.1l1.4 2.9-6 2.5-1.2-3.1zM298.6 594.9l1.4 3-6.2 2.8-1.3-3.1zM301.4 600.7l1.5 2.9-6.4 3.2-1.4-3.1zM304.4 606.5l1.6 2.8-6.6 3.5-1.5-3zM307.6 612.1l1.6 2.8-6.7 3.8-1.6-2.9zM310.9 617.6l1.7 2.8-6.9 4.2-1.6-2.9zM314.4 623.1l1.8 2.6-7.1 4.6-1.7-2.8zM318 628.4l1.9 2.6-7.2 5-1.8-2.8zM321.8 633.6l2 2.6-7.3 5.3-1.9-2.7zM325.8 638.7l2 2.5-7.3 5.7-2-2.7zM329.8 643.7l2.1 2.5-7.3 6-2.1-2.6zM334 648.6l2.1 2.4-7.3 6.4-2.1-2.6zM338.3 653.4l2.2 2.3-7.2 6.8-2.3-2.6zM342.8 658l2.3 2.2-7.3 7.2-2.3-2.5zM347.4 662.5l2.3 2.1-7.2 7.6-2.3-2.4zM352.1 666.8l2.4 2.1-7.1 7.9-2.5-2.3zM356.9 671l2.5 2.1-7 8.2-2.5-2.2zM361.9 675.1l2.5 1.9-6.9 8.7-2.6-2.2zM367 679l2.5 1.9-6.7 9-2.7-2.1zM372.1 682.8l2.6 1.8-6.5 9.3-2.7-2zM377.4 686.4l2.6 1.8-6.3 9.6-2.8-1.9zM382.7 689.9l2.8 1.7-6.2 9.9-2.8-1.8zM388.2 693.3l2.8 1.6-6 10.1-2.8-1.7zM393.8 696.4l2.8 1.5-5.7 10.5-3-1.7zM399.4 699.4l2.9 1.5-5.5 10.7-3-1.6zM405.1 702.2l2.9 1.4-5.2 11-3-1.5zM410.9 704.9l3 1.3-4.9 11.3-3.1-1.4zM416.8 707.4l3 1.2-4.6 11.5-3.2-1.3zM422.8 709.7l3 1.1-4.4 11.8-3.1-1.2zM428.8 711.9l3 1-4 12-3.2-1.1zM434.8 713.9l3.1.9-3.7 12.1-3.2-1zM441 715.7l3 .8-3.3 12.3-3.2-.9zM447.1 717.3l3.1.8-2.9 12.4-3.3-.8zM453.3 718.8l3.2.6-2.6 12.6-3.3-.7zM459.6 720l3.1.6-2.2 12.7-3.3-.7zM465.9 721.1l3.1.5-1.8 12.7-3.4-.5zM472.2 722l3.2.4-1.5 12.8-3.4-.4zM478.5 722.7l3.2.3-1.1 12.9-3.4-.3zM484.9 723.2l3.2.2-.7 13-3.4-.2zM491.3 723.6h3.1l-.3 13.1-3.4-.1zM497.6 723.7h3.2v13.1h-3.3zM504 723.7l3.2-.1.4 13.1-3.4.1zM510.4 723.5l3.2-.2.8 13.1-3.4.2zM516.8 723.1l3.1-.2 1.2 12.9-3.4.3zM523.1 722.6l3.2-.3 1.5 12.8-3.3.4zM529.4 721.9l3.2-.5 1.9 12.8-3.3.5zM535.8 720.9l3.1-.5 2.3 12.7-3.3.6zM542 719.8l3.2-.6 2.6 12.5-3.3.7zM548.3 718.5l3.1-.7 3 12.4-3.3.8zM554.5 717.1l3.1-.9 3.3 12.3-3.2.9zM560.7 715.4l3-.9 3.7 12.1-3.2 1zM566.8 713.5l3-.9 4.1 11.9-3.2 1.1zM572.8 711.5l3.1-1.1 4.3 11.8-3.1 1.2zM578.8 709.3l3-1.1 4.7 11.5-3.1 1.3zM584.8 707l2.9-1.3 5 11.3-3.1 1.4zM590.6 704.5l2.9-1.4 5.3 11.1-3 1.4zM596.4 701.8l2.9-1.4 5.5 10.7-3 1.6zM602.1 698.9l2.9-1.5 5.7 10.5-2.9 1.6zM607.8 695.9l2.8-1.6 6 10.2-2.9 1.7zM613.3 692.7l2.8-1.7 6.2 9.9-2.9 1.8zM618.8 689.4l2.7-1.8 6.4 9.6-2.8 1.8zM624.1 685.8l2.7-1.8 6.6 9.3-2.8 1.9zM629.4 682.2l2.6-1.9 6.8 8.9-2.7 2.1zM634.5 678.3l2.5-1.9 7 8.6-2.6 2.1zM639.6 674.4l2.4-2 7.1 8.2-2.5 2.2zM644.5 670.3l2.4-2.1 7.2 7.9-2.5 2.3zM649.3 666.1l2.4-2.2 7.2 7.5-2.4 2.3zM654 661.7l2.3-2.2 7.3 7.1-2.3 2.4zM658.6 657.2l2.2-2.3 7.3 6.7-2.2 2.5zM663 652.6l2.2-2.4 7.3 6.4-2.2 2.5zM667.3 647.8l2.1-2.5 7.4 6.1-2.1 2.6zM671.5 642.9l2-2.5 7.3 5.6-2 2.7zM675.5 637.9l2-2.6 7.3 5.3-2 2.7zM679.4 632.7l1.9-2.6 7.2 4.9-1.8 2.8zM683.2 627.5l1.8-2.6 7.1 4.5-1.8 2.8zM686.8 622.2l1.8-2.7 6.9 4.1-1.7 2.9zM690.3 616.7l1.6-2.7 6.8 3.8-1.6 2.9zM693.6 611.2l1.5-2.8 6.6 3.4-1.5 3zM696.7 605.5l1.5-2.8 6.4 3.1-1.4 3zM699.7 599.8l1.4-2.9 6.2 2.8-1.4 3zM702.5 594l1.3-3 6 2.5-1.3 3.1zM705.1 588.1l1.3-3 5.6 2.1-1.1 3.2zM707.6 582.1l1.2-3 5.3 1.8-1 3.2zM709.9 576l1.1-3 5 1.5-.9 3.2zM712.1 569.9l1-3.1 4.6 1.3-.8 3.2zM714 563.7l1-3.1 4.2 1-.7 3.3zM715.8 557.4l.9-3.1 3.8.8-.6 3.3zM717.5 551.1l.7-3.2 3.4.7-.5 3.3zM718.9 544.8l.7-3.2 2.9.4-.4 3.3zM720.2 538.4l.5-3.3 2.5.3-.3 3.3zM721.2 531.9l.5-3.2 2 .2-.3 3.3zM722.2 525.4l.3-3.2 1.4.1-.1 3.3zM722.9 518.9l.3-3.3.8.1v3.3zM723.4 512.4l.3-3.3h.1l.1 3.3z"/><g><path fill="#4D92B2" d="m747.8 494.9-.1-1.6h.1zM747.5 490l-.2-3.3h.7l-.1 3.3zM747 483.4l-.3-3.3h1.2l.1 3.3zM746.4 476.9l-.4-3.3 1.7-.2.1 3.4zM745.5 470.3l-.4-3.2 2.2-.3.2 3.3zM744.6 463.9l-.6-3.3 2.7-.4.3 3.3zM743.5 457.4l-.7-3.2 3.1-.5.4 3.3zM742.2 451l-.8-3.2 3.5-.7.6 3.3zM740.7 444.6l-.8-3.2 3.9-.8.6 3.2zM739.1 438.3l-.9-3.2 4.3-1.1.7 3.3zM737.3 432l-1-3.1 4.6-1.3.8 3.2zM735.4 425.8l-1.1-3.1 4.9-1.6.9 3.3zM733.3 419.6l-1.2-3.1 5.2-1.7 1 3.1zM731 413.5l-1.2-3.1 5.5-2 1 3.2zM728.5 407.4l-1.2-3 5.8-2.3 1.1 3.1zM726 401.4l-1.4-2.9 6.1-2.6 1.2 3.1zM723.2 395.5l-1.4-2.9 6.3-2.9 1.3 3.1zM720.4 389.7l-1.5-2.8 6.4-3.2 1.4 3zM717.4 384l-1.6-2.9 6.6-3.4 1.5 2.9zM714.2 378.3l-1.6-2.8 6.7-3.8 1.6 3zM710.9 372.8l-1.7-2.8 6.9-4.1 1.6 2.9zM707.4 367.3l-1.7-2.7 7-4.5 1.7 2.9zM703.8 361.9l-1.8-2.7 7.1-4.8 1.8 2.8zM700.1 356.6l-1.9-2.6 7.2-5.2 1.9 2.8zM696.2 351.4l-1.9-2.5 7.2-5.5 2 2.7zM692.3 346.3l-2.1-2.5 7.3-5.8 2.1 2.7zM688.2 341.3l-2.2-2.4 7.3-6.2 2.2 2.7zM683.9 336.5l-2.2-2.4 7.3-6.5 2.2 2.6zM679.6 331.7l-2.3-2.3 7.3-6.8 2.2 2.5zM675.1 327.1l-2.3-2.3 7.2-7.2 2.3 2.5zM670.5 322.5l-2.4-2.2 7.2-7.4 2.4 2.3zM665.7 318.1l-2.4-2.1 7.2-7.8 2.4 2.3zM660.9 313.9l-2.4-2.1 7-8.2 2.5 2.3zM656 309.7l-2.5-2 6.9-8.5 2.6 2.2zM650.9 305.7l-2.5-1.9 6.8-8.8 2.7 2.1zM645.8 301.8l-2.6-1.8 6.7-9.1 2.7 2zM640.6 298.1l-2.7-1.8 6.6-9.4 2.7 2zM635.3 294.5l-2.7-1.8 6.3-9.6 2.8 1.9zM629.9 291l-2.8-1.7 6.2-9.9 2.8 1.8zM624.4 287.7l-2.8-1.6 5.9-10.2 2.9 1.7zM618.8 284.5l-2.8-1.6 5.7-10.4 2.9 1.7zM613.1 281.4l-2.8-1.4 5.5-10.7 2.9 1.6zM607.4 278.6l-2.9-1.4 5.2-11 3.1 1.5zM601.6 275.8l-3-1.3 5.1-11.2 3 1.5zM595.7 273.3l-3-1.2 4.8-11.5 3.1 1.3zM589.7 270.9l-3-1.2 4.5-11.7 3.2 1.3zM583.7 268.6l-3-1.1 4.2-11.8 3.2 1.1zM577.7 266.5l-3.1-1 3.9-12 3.2 1zM571.6 264.5l-3.1-.9 3.6-12.2 3.2 1zM565.4 262.7l-3.1-.8 3.3-12.3 3.2.9zM559.2 261.1l-3.1-.7 2.9-12.5 3.3.8zM553 259.6l-3.2-.6 2.7-12.6 3.3.8zM546.7 258.3l-3.2-.5 2.3-12.7 3.3.7zM540.4 257.2l-3.2-.5 2-12.7 3.3.5zM534 256.3l-3.2-.4 1.7-12.9 3.3.5zM527.7 255.5l-3.2-.4 1.3-12.9 3.3.4zM521.3 254.9l-3.2-.3.9-13 3.4.3zM514.9 254.4l-3.2-.1.6-13.1 3.4.2zM508.5 254.1h-3.2l.3-13.1 3.3.1zM502.1 254h-3.2l-.1-13.1h3.4zM495.7 254.1h-3.2l-.4-13.1 3.3-.1zM489.3 254.2l-3.2.2-.8-13 3.4-.2zM482.9 254.6l-3.2.2-1.1-12.9 3.3-.3zM476.5 255.1l-3.2.3-1.5-12.8 3.4-.4zM470.1 255.8l-3.2.4-1.8-12.8 3.4-.4zM463.7 256.7l-3.1.5-2.1-12.7 3.3-.6zM457.4 257.7l-3.1.6-2.5-12.6 3.3-.6zM451.1 258.9l-3.1.7-2.8-12.5 3.3-.7zM444.8 260.3l-3.1.7-3.1-12.3 3.3-.9zM438.6 261.8l-3.1.9-3.4-12.3 3.3-.9zM432.4 263.5l-3 .9-3.8-12.1 3.3-1zM426.3 265.4l-3.1 1-4-12 3.2-1zM420.2 267.4l-3 1.1-4.4-11.8 3.2-1.1zM414.1 269.7l-3 1.1-4.6-11.6 3.1-1.3zM408.2 272l-3 1.2-4.9-11.4 3.1-1.3zM402.3 274.5l-3 1.2-5.1-11.1 3-1.4zM396.4 277.1l-2.9 1.4-5.4-10.9 3.1-1.5zM390.6 279.9l-2.8 1.4-5.6-10.6 2.9-1.6zM384.9 282.8l-2.8 1.6-5.8-10.4 2.9-1.7zM379.3 285.9l-2.8 1.6-6-10 2.9-1.8zM373.7 289.2l-2.7 1.7-6.2-9.9 2.8-1.8zM368.3 292.6l-2.7 1.7-6.4-9.5 2.8-1.9zM362.9 296.1l-2.6 1.8-6.6-9.2 2.7-2zM357.6 299.8l-2.6 1.9-6.7-9 2.7-2zM352.5 303.6l-2.6 2-6.9-8.7 2.6-2.1zM347.4 307.6l-2.5 2-7.1-8.4 2.6-2.2zM342.4 311.6l-2.5 2.1-7.1-8 2.5-2.3zM337.5 315.8l-2.4 2.2-7.2-7.7 2.4-2.3zM332.7 320.2l-2.3 2.2-7.3-7.4 2.4-2.4zM328 324.6l-2.2 2.3-7.3-7 2.3-2.5zM323.5 329.2l-2.2 2.3-7.3-6.7 2.2-2.5zM319.1 333.9l-2.2 2.4-7.3-6.4 2.2-2.5zM314.8 338.7l-2.1 2.4-7.4-6 2.1-2.6zM310.6 343.6l-2.1 2.5-7.3-5.7 2.1-2.6zM306.5 348.7l-1.9 2.5-7.3-5.4 1.9-2.7zM302.6 353.8l-1.9 2.6-7.2-5 1.8-2.8zM298.8 359l-1.9 2.7-7.1-4.7 1.8-2.8zM295.1 364.3l-1.8 2.7-6.9-4.3 1.7-2.9zM291.6 369.8l-1.7 2.7-6.9-4 1.7-2.9zM288.2 375.3l-1.6 2.8-6.7-3.7 1.5-2.9zM285 380.9l-1.6 2.8-6.5-3.3 1.4-3zM281.9 386.6l-1.5 2.9-6.4-3.1 1.4-3zM278.9 392.4l-1.4 2.9-6.2-2.8 1.4-3zM276.1 398.2l-1.3 3-6-2.5 1.3-3.1zM273.5 404.2l-1.3 3-5.7-2.2 1.1-3.2zM271 410.2l-1.2 3-5.4-1.9 1-3.2zM268.6 416.2l-1.1 3.1-5.1-1.7 1-3.1zM266.4 422.4l-1 3.1-4.8-1.4.9-3.3zM264.4 428.6l-1 3.1-4.4-1.2.8-3.2zM262.5 434.8l-.8 3.2-4.2-1 .7-3.3zM260.8 441.1l-.8 3.2-3.7-.8.6-3.2zM259.3 447.5l-.8 3.2-3.3-.6.5-3.3zM257.9 453.9l-.7 3.2-2.9-.5.5-3.2zM256.6 460.3l-.5 3.2-2.5-.3.4-3.3zM255.6 466.8l-.5 3.2-2-.2.3-3.3zM254.7 473.3l-.4 3.2-1.5-.1.1-3.3zM253.9 479.8l-.3 3.3-.9-.1v-3.3zM253.3 486.3l-.2 3.3h-.4v-3.3zM252.9 493.3v1.6l-.1-1.6z"/></g><g><path fill="#FFF" d="M478.2 416.9a25.4 25.4 0 1 1 44 25.4 25.4 25.4 0 0 1-44-25.4zM417.3 477.6a25.4 25.4 0 1 1 44-25.5 25.4 25.4 0 0 1-44 25.5zM439.4 560.7a25.4 25.4 0 1 1 0-50.9 25.4 25.4 0 0 1 0 50.9zM522.4 583.1a25.4 25.4 0 1 1-44-25.4 25.4 25.4 0 0 1 44 25.4zM583.4 522.4a25.4 25.4 0 1 1-44.1 25.5 25.4 25.4 0 0 1 44-25.5zM561.3 439.3a25.4 25.4 0 1 1 0 50.9 25.4 25.4 0 0 1 0-50.9z"/></g><g><path fill="#FFF" d="M518.5 373.8c0-10.7-11-14.7-11-26.6 0-19.9 26.8 24.2 26.8-11.1 0-16.8-34-15.1-34-15.1s-33.3-1.7-33.3 15c0 35.4 26.8-8.7 26.8 11.2 0 12-11 15.9-11 26.6 0 11 35.7 11 35.7 0zM453 381.6c-5.4-9.3-17-7.2-23-17.5-9.9-17.2 35.4 7.6 17.7-23-8.3-14.6-37 3.9-37 3.9s-29.6 15.2-21.2 29.7c17.6 30.6 18.8-21 28.8-3.8 6 10.4-1.7 19.3 3.7 28.6 5.4 9.5 36.4-8.4 31-17.9zM400.1 421.2c-9.3-5.4-18.2 2.2-28.6-3.8-17.2-9.9 34.5-11 3.8-28.8-14.5-8.4-30 22-30 22s-18.2 28-3.6 36.3c30.6 17.7 5.8-27.6 23-17.7 10.4 6 8.2 17.6 17.5 23 9.5 5.4 27.4-25.6 18-31zM374.1 481.8c-10.7 0-14.7 11.1-26.6 11.1-19.9 0 24.3-26.9-11.1-26.9-16.8 0-15.1 34-15.1 34s-1.7 33.4 15 33.4c35.5 0-8.7-26.9 11.2-26.9 12 0 16 11.1 26.6 11.1 11 0 11-35.8 0-35.8zM382 547.3c-9.3 5.4-7.2 17-17.6 23-17.2 9.9 7.6-35.4-23-17.7-14.6 8.4 3.9 37 3.9 37s15.2 29.6 29.7 21.3c30.7-17.7-21-19-3.8-28.9 10.4-6 19.4 1.7 28.7-3.7 9.4-5.4-8.5-36.4-18-31zM421.5 600.2c-5.4 9.3 2.2 18.3-3.7 28.6-10 17.2-11.2-34.4-28.9-3.8-8.3 14.5 22 30 22 30s28 18.2 36.3 3.7c17.7-30.7-27.6-5.9-17.7-23.1 6-10.3 17.6-8.2 23-17.5 5.4-9.5-25.6-27.4-31-18zM482.1 626.2c0 10.7 11.1 14.7 11.1 26.6 0 19.9-26.8-24.2-26.8 11.1 0 16.8 34 15.1 34 15.1s33.3 1.7 33.3-15c0-35.4-26.9 8.7-26.9-11.2 0-12 11.1-15.9 11.1-26.6 0-11-35.8-11-35.8 0zM547.6 618.4c5.4 9.3 17 7.2 23 17.5 10 17.2-35.4-7.6-17.7 23 8.4 14.6 37-3.9 37-3.9s29.7-15.2 21.3-29.7c-17.7-30.6-18.9 21-28.8 3.8-6-10.4 1.6-19.3-3.7-28.6-5.5-9.5-36.5 8.4-31 17.9zM600.5 578.8c9.3 5.4 18.3-2.2 28.6 3.8 17.2 9.9-34.4 11-3.8 28.8 14.5 8.4 30.1-22 30.1-22s18.1-28 3.6-36.3c-30.7-17.7-5.9 27.6-23 17.7-10.4-6-8.3-17.6-17.6-23-9.5-5.4-27.4 25.6-18 31zM626.5 518.2c10.7 0 14.7-11.1 26.6-11.1 19.9 0-24.2 26.8 11.2 26.9 16.7 0 15-34 15-34s1.7-33.4-15-33.4c-35.4 0 8.7 26.9-11.2 26.9-12 0-15.9-11.1-26.6-11.1-11 0-11 35.8 0 35.8zM618.7 452.7c9.3-5.4 7.2-17 17.5-23 17.2-9.9-7.6 35.4 23 17.7 14.6-8.4-3.9-37-3.9-37s-15.2-29.7-29.7-21.3c-30.6 17.7 21 19 3.8 28.9-10.3 6-19.3-1.7-28.6 3.7-9.5 5.4 8.4 36.4 17.9 31zM579.2 399.8c5.3-9.3-2.3-18.3 3.7-28.6 10-17.2 11.1 34.4 28.8 3.8 8.4-14.5-22-30-22-30s-28-18.2-36.3-3.7c-17.7 30.7 27.6 5.9 17.7 23.1-6 10.3-17.6 8.2-23 17.5-5.4 9.5 25.6 27.4 31 18z"/></g><g><path fill="#FFF" d="M502.7 525a3.3 3.3 0 0 1-4.7 0l-22.7-22.7a3.3 3.3 0 0 1 0-4.6L498 475a3.3 3.3 0 0 1 4.7 0l22.6 22.7a3.3 3.3 0 0 1 0 4.6L502.7 525z"/></g><g><defs><path id="a" d="M766.5 500a266.5 266.5 0 0 1-266.2 266.2A266.5 266.5 0 0 1 234.1 500a266.5 266.5 0 0 1 266.2-266.2A266.5 266.5 0 0 1 766.5 500z"/></defs><clipPath id="b"><use xlink:href="#a" overflow="visible"/></clipPath><g clip-path="url(#b)" opacity=".4"><path fill="#393336" d="M768.8 552.6c-181-13-361.3-13-542.2 0v-119c181-13 361.2-13 542.2 0v119z"/></g></g><g><path fill="#006491" d="M219.7 582.5c-40.4 9.2-80.2 20-119.7 32.6l30.7-66.5-30.7-47.3c39.5-12.6 79.3-23.5 119.7-32.7v113.9zM780.3 582.5c40.4 9.2 80.2 20 119.7 32.6l-30.7-66.5 30.7-47.3a1443.4 1443.4 0 0 0-119.7-32.7v113.9z"/><path fill="#005277" d="M219.7 582.5c-19-5.3-38-10.3-57.2-14.8v-85c19-5.2 38-9.8 57.2-14v113.8zM780.3 582.5c19-5.4 38-10.3 57.2-14.8v-85c-19-5.1-38-9.9-57.2-14v113.8z"/><path fill="#E31837" d="M174.3 554.9a2859 2859 0 0 1 45.4 27.6v-45.7c-15-1.4-30.2-2.6-45.3-3.7l-.1 21.8zM825.7 554.9c-15.2 9-30.4 18.2-45.4 27.6v-45.7c15-1.4 30.2-2.6 45.3-3.7l.1 21.8z"/><path fill="#006491" d="M826.2 553.3a1318.1 1318.1 0 0 0-652.5 0V439.4a1318.1 1318.1 0 0 1 652.5 0v113.9z"/><g fill="#FFF"><path d="M265.4 507.5v-63.6l11-2v26c4.6-.9 7-1.3 11.6-2v-26l11-1.7v63.6l-11 1.7v-28.1c-4.7.7-7 1.1-11.7 2v28.1l-10.9 2zM315.9 499.2l-10.6 1.6 11.7-65.3 13.7-1.9 11.8 62-10.7 1.4c-.8-5.5-1.1-8.3-2-13.8l-12 1.6c-.7 5.8-1.1 8.7-2 14.4zm3.5-24 8.9-1.3-4.4-26.7h-.1l-4.4 28zM348.3 495v-63.6l11-1.2v54l17.3-1.8v9.5l-28.3 3zM383.4 491.3v-63.5c10.2-1 20.5-1.8 30.7-2.5v9.6l-19.7 1.4v16.4l14.7-1.1v9.5l-14.7 1.1v28.2l-11 1zM449 487l-10.7.5 11.9-64c5.4-.3 8.2-.3 13.7-.5l11.8 63.3-10.7.2-2-14-12 .4-2 14.1zm3.6-23.7 8.9-.3a300760.3 300760.3 0 0 0-4.6-27.1l-4.3 27.4zM482.1 486.2v-63.6h10.3l13.4 36.3h.2v-36.4l10 .1v63.5h-9.6l-14.1-39.7h-.2V486h-10zM526.7 422.8l16.4.4c5.7.2 10 2 13 5.2s4.4 8.1 4.4 14.7v25.2c0 6.5-1.4 11.3-4.4 14.3-3 3-7.3 4.4-13 4.2l-16.4-.5v-63.5zm11 54.8 3.9.1c3 .1 5-.4 6.1-1.7 1.2-1.2 1.8-3.5 1.8-6.9v-27.8c0-3.3-.6-5.7-1.8-7-1.1-1.3-3.2-2-6.1-2.2h-3.9v45.5zM591 489.2v-63.5l11 .8v25.9l11.7 1v-25.9l11 1v63.6l-11-1v-28.2l-11.7-1v28.2l-11-.9zM641.8 493.8l-10.7-1.1 11.8-62.3 13.7 1.6 11.8 65-10.7-1.3c-.8-5.7-1.1-8.6-2-14.3l-12-1.4-2 13.8zm3.5-23.2 8.9 1-4.4-27.7h-.1l-4.4 26.7zM674.2 497.8v-63.5l11 1.5v54l17.2 2.7v9.5c-9.4-1.5-18.8-3-28.2-4.2zM709.1 503v-63.5a1171 1171 0 0 1 30.5 5.4v9.5a1079 1079 0 0 0-19.6-3.6v16.4l14.7 2.6v9.5l-14.7-2.6V505l-10.9-1.9z"/></g></g></svg>